<svg width="20" height="20" viewBox="0 0 20 20" fill="none" xmlns="http://www.w3.org/2000/svg">
<path d="M13.75 16.4333H3.75004V6.24992H9.58337V4.58325H3.75004C2.83337 4.58325 2.08337 5.33325 2.08337 6.24992V16.2499C2.08337 17.1666 2.83337 17.9166 3.75004 17.9166H13.75C14.6667 17.9166 15.4167 17.1666 15.4167 16.2499V10.4166H13.75V16.4333Z" fill="#4F4F4F"/>
<path d="M15.4167 2.08325H13.75V4.58325H11.25C11.2584 4.59159 11.25 6.24992 11.25 6.24992H13.75V8.74158C13.7584 8.74992 15.4167 8.74158 15.4167 8.74158V6.24992H17.9167V4.58325H15.4167V2.08325Z" fill="#4F4F4F"/>
<path d="M12.0834 7.91659H5.41671V9.58325H12.0834V7.91659Z" fill="#4F4F4F"/>
<path d="M5.41671 10.4166V12.0833H12.0834V10.4166H5.41671Z" fill="#4F4F4F"/>
<path d="M12.0834 12.9166H5.41671V14.5833H12.0834V12.9166Z" fill="#4F4F4F"/>
</svg>
