<svg width="20" height="20" viewBox="0 0 20 20" fill="none" xmlns="http://www.w3.org/2000/svg">
<path fill-rule="evenodd" clip-rule="evenodd" d="M6.66659 15.0001V13.3334H13.3333V15.0001H6.66659ZM6.66659 11.6667V10.0001H13.3333V11.6667H6.66659ZM11.6666 1.66675H4.99992C4.08325 1.66675 3.33325 2.41675 3.33325 3.33341V16.6667C3.33325 17.5834 4.07492 18.3334 4.99159 18.3334H14.9999C15.9166 18.3334 16.6666 17.5834 16.6666 16.6667V6.66675L11.6666 1.66675ZM14.9999 16.6667H4.99992V3.33341H10.8333V4.07422C12.2824 4.33575 13.4695 5.26625 13.9999 6.50008C13.844 6.86271 13.6314 7.19914 13.3721 7.50008H14.9999V16.6667Z" fill="#4F4F4F"/>
<path d="M10 4.66667C10.2856 4.66667 10.5648 4.69716 10.8333 4.7555C11.8606 4.97869 12.7316 5.60946 13.2073 6.5C13.001 6.88621 12.7203 7.22356 12.3848 7.5C11.7445 8.02761 10.9044 8.33333 10 8.33333C8.62182 8.33333 7.39273 7.62333 6.79273 6.5C7.39273 5.37667 8.62182 4.66667 10 4.66667ZM10 9C11.3676 9 12.585 8.41346 13.3722 7.5C13.6315 7.19906 13.8441 6.86263 14 6.5C13.4696 5.26617 12.2825 4.33566 10.8333 4.07414C10.5638 4.0255 10.2852 4 10 4C8.18182 4 6.62909 5.03667 6 6.5C6.62909 7.96333 8.18182 9 10 9Z" fill="#4F4F4F"/>
<path fill-rule="evenodd" clip-rule="evenodd" d="M9.99989 5.66667C10.3724 5.66667 10.6928 5.87241 10.8332 6.16661C10.8819 6.26872 10.909 6.38148 10.909 6.5C10.909 6.61852 10.8819 6.73128 10.8332 6.83339C10.6928 7.12759 10.3724 7.33333 9.99989 7.33333C9.49807 7.33333 9.0908 6.96 9.0908 6.5C9.0908 6.04 9.49807 5.66667 9.99989 5.66667ZM9.99989 8C10.4831 8 10.9183 7.80666 11.2182 7.5C11.478 7.23437 11.6363 6.8837 11.6363 6.5C11.6363 5.95203 11.3135 5.47144 10.8332 5.20967C10.5889 5.07653 10.3039 5 9.99989 5C9.09807 5 8.36353 5.67333 8.36353 6.5C8.36353 7.32667 9.09807 8 9.99989 8Z" fill="#4F4F4F"/>
</svg>
