<svg width="20" height="20" viewBox="0 0 20 20" fill="none" xmlns="http://www.w3.org/2000/svg">
<path d="M13.75 9.16667C11.45 9.16667 9.58337 11.0333 9.58337 13.3333C9.58337 15.6333 11.45 17.5 13.75 17.5C16.05 17.5 17.9167 15.6333 17.9167 13.3333C17.9167 11.0333 16.05 9.16667 13.75 9.16667ZM15.125 15.2917L13.3334 13.5V10.8333H14.1667V13.1583L15.7084 14.7L15.125 15.2917Z" fill="#4F4F4F"/>
<path d="M8.75004 9.16667L3.75004 7.91667V5.00833L11.1417 8.125C11.925 7.73333 12.8084 7.5 13.75 7.5C13.8334 7.5 13.9084 7.50833 13.9834 7.50833L2.08337 2.5V15.8333L7.91671 13.375C7.91671 13.3583 7.91671 13.35 7.91671 13.3333C7.91671 12.6667 8.03337 12.0333 8.24171 11.4333L3.75004 13.325V10.4167L8.75004 9.16667Z" fill="#4F4F4F"/>
</svg>
