<svg width="20" height="20" viewBox="0 0 20 20" fill="none" xmlns="http://www.w3.org/2000/svg">
<path d="M3.33301 13.3333V18.3333H16.6663V13.3333C16.6663 12.4166 15.9163 11.6666 14.9997 11.6666H4.99967C4.08301 11.6666 3.33301 12.4166 3.33301 13.3333ZM14.9997 15H4.99967V13.3333H14.9997V15ZM9.99967 1.66663C7.69967 1.66663 5.83301 3.53329 5.83301 5.83329L9.99967 11.6666L14.1663 5.83329C14.1663 3.53329 12.2997 1.66663 9.99967 1.66663ZM9.99967 9.16663L7.49967 5.83329C7.49967 4.44996 8.61634 3.33329 9.99967 3.33329C11.383 3.33329 12.4997 4.44996 12.4997 5.83329L9.99967 9.16663Z" fill="#4F4F4F"/>
</svg>
