<svg width="24" height="24" viewBox="0 0 24 24" fill="none" xmlns="http://www.w3.org/2000/svg">
<path d="M13 4H9V8H13V4Z" fill="#4F4F4F"/>
<path d="M7 16H3V20H7V16Z" fill="#4F4F4F"/>
<path d="M7 10H3V14H7V10Z" fill="#4F4F4F"/>
<path d="M7 4H3V8H7V4Z" fill="#4F4F4F"/>
<path d="M19 4H15V8H19V4Z" fill="#4F4F4F"/>
<path d="M10 17.86V20H12.1L18.08 14.03L15.96 11.91L10 17.86Z" fill="#4F4F4F"/>
<path d="M13 12.03V10H9V14H11.03L13 12.03Z" fill="#4F4F4F"/>
<path d="M19.85 11.56L18.44 10.15C18.24 9.95 17.93 9.95 17.73 10.15L16.67 11.21L18.79 13.33L19.85 12.27C20.05 12.07 20.05 11.76 19.85 11.56Z" fill="#4F4F4F"/>
</svg>
