<svg width="20" height="20" viewBox="0 0 20 20" fill="none" xmlns="http://www.w3.org/2000/svg">
<path d="M5.83333 13.3334H11.6667V15H5.83333V13.3334ZM5.83333 10H14.1667V11.6667H5.83333V10ZM5.83333 6.66669H14.1667V8.33335H5.83333V6.66669ZM15.8333 3.33335H12.35C12 2.36669 11.0833 1.66669 10 1.66669C8.91667 1.66669 8 2.36669 7.65 3.33335H4.16667C4.05 3.33335 3.94167 3.34169 3.83333 3.36669C3.50833 3.43335 3.21667 3.60002 2.99167 3.82502C2.84167 3.97502 2.71667 4.15835 2.63333 4.35835C2.55 4.55002 2.5 4.76669 2.5 5.00002V16.6667C2.5 16.8917 2.55 17.1167 2.63333 17.3167C2.71667 17.5167 2.84167 17.6917 2.99167 17.85C3.21667 18.075 3.50833 18.2417 3.83333 18.3084C3.94167 18.325 4.05 18.3334 4.16667 18.3334H15.8333C16.75 18.3334 17.5 17.5834 17.5 16.6667V5.00002C17.5 4.08335 16.75 3.33335 15.8333 3.33335ZM10 3.12502C10.3417 3.12502 10.625 3.40835 10.625 3.75002C10.625 4.09169 10.3417 4.37502 10 4.37502C9.65833 4.37502 9.375 4.09169 9.375 3.75002C9.375 3.40835 9.65833 3.12502 10 3.12502ZM15.8333 16.6667H4.16667V5.00002H15.8333V16.6667Z" fill="#4F4F4F"/>
</svg>
