<svg width="72" height="72" viewBox="0 0 72 72" fill="none" xmlns="http://www.w3.org/2000/svg">
<path d="M64.5 19.5H54.99L49.5 13.5H31.5V19.5H46.86L52.35 25.5H64.5V61.5H16.5V34.5H10.5V61.5C10.5 64.8 13.2 67.5 16.5 67.5H64.5C67.8 67.5 70.5 64.8 70.5 61.5V25.5C70.5 22.2 67.8 19.5 64.5 19.5ZM25.5 43.5C25.5 51.78 32.22 58.5 40.5 58.5C48.78 58.5 55.5 51.78 55.5 43.5C55.5 35.22 48.78 28.5 40.5 28.5C32.22 28.5 25.5 35.22 25.5 43.5ZM40.5 34.5C45.45 34.5 49.5 38.55 49.5 43.5C49.5 48.45 45.45 52.5 40.5 52.5C35.55 52.5 31.5 48.45 31.5 43.5C31.5 38.55 35.55 34.5 40.5 34.5ZM16.5 19.5H25.5V13.5H16.5V4.5H10.5V13.5H1.5V19.5H10.5V28.5H16.5V19.5Z" fill="#4F4F4F"/>
</svg>
