<svg width="24" height="24" viewBox="0 0 24 24" fill="none" xmlns="http://www.w3.org/2000/svg">
<path d="M12.5 15.9375V17.2" stroke="#1955FF" stroke-width="1.3" stroke-linecap="round" stroke-linejoin="round"/>
<path d="M12.5 9.67499V10.85" stroke="#1955FF" stroke-width="1.3" stroke-linecap="round" stroke-linejoin="round"/>
<path d="M12.5 20.275C16.875 20.275 20 18.725 20 15.275C20 11.525 18.125 9.025 14.375 7.15L15.85 5.25C15.9249 5.12534 15.9656 4.98308 15.9678 4.83765C15.97 4.69222 15.9338 4.54878 15.8627 4.42187C15.7917 4.29497 15.6883 4.1891 15.5631 4.11502C15.438 4.04093 15.2954 4.00125 15.15 4H9.85C9.70456 4.00125 9.56203 4.04093 9.43686 4.11502C9.31169 4.1891 9.20834 4.29497 9.13727 4.42187C9.0662 4.54878 9.02995 4.69222 9.03219 4.83765C9.03442 4.98308 9.07507 5.12534 9.15 5.25L10.625 7.1625C6.875 9.05 5 11.55 5 15.3C5 18.725 8.125 20.275 12.5 20.275Z" stroke="#1955FF" stroke-width="1.3" stroke-linecap="round" stroke-linejoin="round"/>
<path d="M11.25 15.3625C11.4025 15.5435 11.5944 15.6872 11.8111 15.7826C12.0278 15.8779 12.2634 15.9223 12.5 15.9125C12.8615 15.9371 13.2184 15.8206 13.4958 15.5875C13.7732 15.3544 13.9495 15.0228 13.9875 14.6625C13.9495 14.3021 13.7732 13.9705 13.4958 13.7374C13.2184 13.5043 12.8615 13.3878 12.5 13.4125C12.1384 13.4371 11.7815 13.3206 11.5041 13.0875C11.2267 12.8544 11.0504 12.5228 11.0125 12.1625C11.0474 11.8009 11.2228 11.4674 11.5009 11.2336C11.779 10.9999 12.1377 10.8846 12.5 10.9125C12.7323 10.8983 12.9649 10.9357 13.1811 11.0222C13.3972 11.1086 13.5915 11.2419 13.75 11.4125" stroke="#1955FF" stroke-width="1.3" stroke-linecap="round" stroke-linejoin="round"/>
</svg>
