<svg width="20" height="20" viewBox="0 0 20 20" fill="none" xmlns="http://www.w3.org/2000/svg">
<path d="M2.72904 12.7463C2.02076 11.8261 1.66663 11.3661 1.66663 9.99992C1.66663 8.63377 2.02076 8.17369 2.72904 7.25353C4.14326 5.41622 6.51505 3.33325 9.99996 3.33325C13.4849 3.33325 15.8567 5.41622 17.2709 7.25353C17.9792 8.17369 18.3333 8.63377 18.3333 9.99992C18.3333 11.3661 17.9792 11.8261 17.2709 12.7463C15.8567 14.5836 13.4849 16.6666 9.99996 16.6666C6.51505 16.6666 4.14326 14.5836 2.72904 12.7463Z" stroke="#4F4F4F" stroke-width="1.5"/>
<path d="M12.5 10C12.5 11.3807 11.3807 12.5 10 12.5C8.61929 12.5 7.5 11.3807 7.5 10C7.5 8.61929 8.61929 7.5 10 7.5C11.3807 7.5 12.5 8.61929 12.5 10Z" stroke="#4F4F4F" stroke-width="1.5"/>
</svg>
